<?xml version="1.0" encoding="UTF-8"?>
<svg xmlns="http://www.w3.org/2000/svg" viewBox="0 0 104 104">
  <defs>
    <style>
      .st0 {
        stroke: #c7b8e8;
        stroke-width: 2.8px;
      }

      .st0, .st1 {
        stroke-linecap: round;
      }

      .st0, .st1, .st2, .st3 {
        fill: none;
      }

      .st1 {
        stroke-width: 1.8px;
      }

      .st1, .st3, .st4 {
        stroke: #2e4068;
      }

      .st2 {
        isolation: isolate;
        opacity: .5;
      }

      .st2, .st5 {
        stroke: #a98fd8;
      }

      .st2, .st3, .st4 {
        stroke-width: 1.2px;
      }

      .st2, .st4 {
        stroke-linejoin: round;
      }

      .st5 {
        fill: #243352;
        opacity: .8;
        stroke-miterlimit: 10;
        stroke-width: .5px;
      }

      .st4 {
        fill: #1a2744;
      }
    </style>
  </defs>
  <path class="st4" d="M30,28c-4-10.7-3.3-13.3,2-8l4,14h32l4-14c5.3-5.3,6-2.7,2,8l2,8c4,6.7,6,14.7,6,24s-10,20-30,24c-20-4-30-12-30-24s2-17.3,6-24l2-8Z"/>
  <line class="st3" x1="36" y1="34" x2="68" y2="34"/>
  <rect class="st5" x="28" y="36" width="48" height="34" rx="14" ry="14"/>
  <line class="st1" x1="32" y1="44" x2="46" y2="47"/>
  <line class="st1" x1="58" y1="47" x2="72" y2="44"/>
  <path class="st0" d="M36,53c4,3.3,8,3.3,12,0"/>
  <path class="st0" d="M56,53c4,3.3,8,3.3,12,0"/>
  <path class="st2" d="M50,62l2,4,2-4"/>
</svg>
