<?xml version="1.0" encoding="UTF-8"?>
<svg xmlns="http://www.w3.org/2000/svg" viewBox="0 0 104 104" role="img" aria-labelledby="title desc">
  <title id="title">.nemuri mascot</title>
  <desc id="desc">A sleepy night mascot icon in deep navy and soft lavender.</desc>
  <defs>
    <linearGradient id="bodyGradient" x1="24" y1="17" x2="76" y2="87" gradientUnits="userSpaceOnUse">
      <stop offset="0" stop-color="#24365f"/>
      <stop offset=".58" stop-color="#1b2a49"/>
      <stop offset="1" stop-color="#16223e"/>
    </linearGradient>
    <linearGradient id="faceGradient" x1="31" y1="37" x2="73" y2="72" gradientUnits="userSpaceOnUse">
      <stop offset="0" stop-color="#2a3b60"/>
      <stop offset="1" stop-color="#202f50"/>
    </linearGradient>
    <linearGradient id="outlineGradient" x1="21" y1="16" x2="83" y2="88" gradientUnits="userSpaceOnUse">
      <stop offset="0" stop-color="#304a7d"/>
      <stop offset=".55" stop-color="#263d6b"/>
      <stop offset="1" stop-color="#22345e"/>
    </linearGradient>
    <linearGradient id="lavenderStroke" x1="34" y1="50" x2="70" y2="58" gradientUnits="userSpaceOnUse">
      <stop offset="0" stop-color="#cbbdf0"/>
      <stop offset="1" stop-color="#b9a6e7"/>
    </linearGradient>
  </defs>

  <ellipse cx="52" cy="88.2" rx="22" ry="3.2" fill="#0d162b" opacity=".12"/>

  <path
    d="M29.9 29.2c-3.6-10.4-2.4-14.7 2.7-10.7 2.7 2.2 4.6 8.1 6.8 16.2h25.2c2.2-8.1 4.1-14 6.8-16.2 5.1-4 6.3.3 2.7 10.7-.5 1.6-1.1 3.7-1.7 6.1 6.5 7.1 9.6 15.9 9.6 25.8 0 14.7-10.8 23.1-30 27.1-19.2-4-30-12.4-30-27.1 0-9.9 3.1-18.7 9.6-25.8-.6-2.4-1.2-4.5-1.7-6.1Z"
    fill="url(#bodyGradient)"
    stroke="url(#outlineGradient)"
    stroke-width="2.7"
    stroke-linejoin="round"/>

  <path
    d="M43.5 36.3h17c9.3 0 15.8 6.5 15.8 15.8v4.4c0 9.7-6.3 15.9-16 15.9H43.7c-9.7 0-16-6.2-16-15.9v-4.4c0-9.3 6.5-15.8 15.8-15.8Z"
    fill="url(#faceGradient)"
    stroke="#9d82cf"
    stroke-width="1.45"
    stroke-linejoin="round"/>

  <path
    d="M33.4 44.4c4.8 1 8.7 1.8 13.1 2.9"
    fill="none"
    stroke="#344c7b"
    stroke-width="2.45"
    stroke-linecap="round"/>

  <path
    d="M70.6 44.4c-4.8 1-8.7 1.8-13.1 2.9"
    fill="none"
    stroke="#344c7b"
    stroke-width="2.45"
    stroke-linecap="round"/>

  <path
    d="M35.5 53.9c4.2 3.9 8.8 3.9 13 0"
    fill="none"
    stroke="url(#lavenderStroke)"
    stroke-width="5.1"
    stroke-linecap="round"/>

  <path
    d="M55.5 53.9c4.2 3.9 8.8 3.9 13 0"
    fill="none"
    stroke="url(#lavenderStroke)"
    stroke-width="5.1"
    stroke-linecap="round"/>

  <path
    d="M49.1 62.4 52 67.2l2.9-4.8"
    fill="none"
    stroke="#9479c5"
    stroke-width="3"
    stroke-linecap="round"
    stroke-linejoin="round"
    opacity=".85"/>
</svg>
